# xmcd
#
# Track frame offsets:
#	150
#	17791
#	37378
#	57756
#	72641
#	90462
#	104598
#	123565
#	138011
#	156079
#	183851
#
# Disc length: 2701 seconds
#
# Revision: 1
# Processed by: cddbd v1.5.2PL0 Copyright (c) Steve Scherf et al.
# Submitted via: audiograbber 1.83.01
#
DISCID=980a8b0b
DTITLE=Hank Williams Jr - 127 Rose Avenue
DYEAR=2009
DGENRE=Country
TTITLE0=Farm song - Slip Blues
TTITLE1=Red, White and Pink - Slip Blues
TTITLE2=High maintenance woman - Slip Blues
TTITLE3=Mighty oak trees - Slip Blues
TTITLE4=Forged by fire - Slip Blues
TTITLE5=Last driftin' cowboy - Slip Blues
TTITLE6=127 Rose Avenue - Slip Blues
TTITLE7=All the roads (featuring The Grascals) - Slip Blues
TTITLE8=Sounds like justice - Slip Blues
TTITLE9=Long gone lonesome Blues - Slip Blues
TTITLE10=Gulf shore road - Slip Blues
EXTD=
EXTT0=
EXTT1=
EXTT2=
EXTT3=
EXTT4=
EXTT5=
EXTT6=
EXTT7=
EXTT8=
EXTT9=
EXTT10=
PLAYORDER=
